<svg width="523" height="523" viewBox="0 0 523 523" fill="none" xmlns="http://www.w3.org/2000/svg">
<g clip-path="url(#clip0_1_9)">
<path d="M261.228 90.9565C167.636 90.9565 91.7841 166.794 91.7841 260.303C91.7841 353.812 167.629 429.705 261.207 429.705C354.785 429.705 430.581 353.86 430.581 260.303C430.581 166.745 354.744 90.9426 261.221 90.9565M261.2 426.256C169.513 426.283 95.2195 351.969 95.2195 260.303C95.2195 168.637 169.513 94.3919 261.2 94.3919C352.887 94.3919 427.153 168.693 427.153 260.303C427.153 351.913 352.852 426.256 261.2 426.256ZM78.6472 296.25C78.3134 294.588 77.8475 293.121 77.2563 291.765C76.693 290.408 75.8655 289.317 74.864 288.447C73.9878 287.648 72.9724 287.056 71.8319 286.66C70.1072 286.02 68.2782 285.895 66.3519 286.284C64.502 286.66 62.9859 287.425 61.8663 288.524C60.7466 289.643 59.9955 291.076 59.7452 292.891C58.9802 291.89 58.2083 291.201 57.3946 290.77C56.0037 290.019 54.3068 289.859 52.3109 290.29C50.3846 290.687 48.8268 291.521 47.6654 292.808C45.7738 294.929 45.1688 297.961 45.9407 301.925L49.2023 317.628L81.6863 310.917L78.6542 296.25H78.6472ZM53.521 309.978L52.0397 302.926C51.685 301.369 51.6085 300.04 51.7059 298.983C52.0049 297.718 52.8464 296.904 54.3903 296.612C55.7325 296.327 56.8174 296.57 57.4989 297.342C58.2291 298.093 58.7298 299.185 59.015 300.624L60.6562 308.497L53.514 309.985L53.521 309.978ZM66.018 307.37L64.3559 299.394C64.1056 298.003 64.0708 296.876 64.2725 296.035C64.6063 294.518 65.6286 293.58 67.3046 293.239C69.3005 292.829 70.7957 293.267 71.818 294.532C72.3535 295.235 72.7708 296.299 73.0837 297.711L74.7041 305.604L66.018 307.37V307.37ZM58.3404 272.939C64.2725 273.064 68.8693 271.444 72.0823 268.14C74.7249 265.665 76.0671 262.076 76.1297 257.326C76.2132 252.583 74.9683 248.939 72.4369 246.394C69.3144 243.014 64.7941 241.248 58.855 241.164C52.7699 241.06 48.2009 242.66 45.0645 245.942C42.4705 248.411 41.1005 252.006 41.01 256.742C40.9683 261.52 42.1714 265.15 44.7098 267.702C47.721 271.11 52.2553 272.876 58.3404 272.946M50.0438 250.372C52.1093 248.786 54.9884 248.021 58.709 248.091C62.4643 248.147 65.3296 249.002 67.2976 250.643C69.3144 252.284 70.3089 254.503 70.2533 257.229C70.2046 259.983 69.1475 262.174 67.1168 263.745C65.0653 265.366 62.1723 266.138 58.4099 266.068C54.6963 265.992 51.8241 265.157 49.8213 263.474C47.8254 261.812 46.8656 259.614 46.8935 256.867C46.9491 254.1 48.0062 251.944 50.0438 250.372M66.8039 197.171L84.0925 201.406L83.0076 205.885L78.8141 205.579C80.0172 207.241 80.81 208.667 81.1856 209.877C81.8323 211.893 81.8323 214.216 81.1856 216.838C80.1424 221.087 77.7988 224.23 74.1895 226.226C70.5106 228.32 66.1084 228.751 60.9552 227.485C55.7255 226.226 51.9006 223.751 49.4735 220.093C47.0256 216.462 46.3997 212.29 47.5472 207.547C48.5625 203.437 50.4054 200.426 53.0898 198.457C55.7673 196.482 58.7229 195.69 61.9219 196.086L60.2807 202.707C57.9788 202.686 56.108 203.541 54.7519 205.308C53.9869 206.274 53.4445 207.484 53.1176 208.84C52.5126 211.434 52.9229 213.806 54.4807 215.948C56.0176 218.104 58.7785 219.661 62.6869 220.614C66.6509 221.595 69.6621 221.365 71.7902 219.974C73.8417 218.563 75.17 216.713 75.7542 214.439C76.2897 212.172 76.081 210.155 75.17 208.395C74.2381 206.65 72.7638 205.321 70.7262 204.466L68.918 211.921L63.5145 210.586L66.8178 197.178L66.8039 197.171ZM42.0323 211.845C40.6623 212.881 38.8333 213.215 36.5523 212.86L37.2616 209.911C38.6734 210.037 39.7443 209.578 40.5371 208.479C40.9753 207.874 41.3369 207.088 41.5316 206.107C41.782 205.106 41.8307 204.237 41.7403 203.499C41.5455 202.185 40.8084 201.274 39.5427 200.732L40.2451 197.776C42.4566 198.527 43.9239 199.668 44.6333 201.232C45.3983 202.79 45.4748 204.696 44.9393 206.914C44.3829 209.16 43.4232 210.822 42.0323 211.838M98.356 169.951L101.743 163.22L66.783 158.95L63.2989 165.946L87.6949 191.364L90.9426 184.869L85.845 179.82L91.2903 168.894L98.356 169.951V169.951ZM81.575 175.584L71.7971 165.883L85.3582 167.983L81.575 175.584V175.584ZM85.2191 139.137L80.5736 135.506L96.0471 115.686L100.421 119.101L107.056 146.042L117.62 132.46L122.251 136.049L106.486 156.237L101.861 152.656L95.3795 126.09L85.2122 139.137H85.2191ZM105.185 101.11L101.506 97.2433L105.742 93.1749L109.434 97.0555L105.185 101.117V101.11ZM107.383 104.184L112.362 99.4339L135.277 123.433L130.27 128.197L107.39 104.191L107.383 104.184ZM134.693 101.812C131.368 97.0416 130.124 92.4795 130.854 88.1747C131.515 84.4054 133.531 81.3594 136.96 79.0158C141.508 75.8794 145.889 75.1005 150.062 76.6861C152.392 77.5762 154.179 78.8489 155.445 80.4971L149.714 84.4333C148.469 83.3484 147.343 82.6947 146.258 82.4165C144.457 81.9297 142.523 82.3678 140.527 83.7517C138.49 85.1426 137.474 87.1037 137.44 89.5656C137.419 92.0553 138.455 94.8231 140.569 97.897C142.669 100.95 144.867 102.828 147.183 103.502C149.464 104.177 151.578 103.857 153.449 102.536C155.445 101.2 156.481 99.5034 156.606 97.4867C156.682 96.4018 156.411 95.0318 155.841 93.3558L161.502 89.4404C163.067 92.7438 163.477 96.0401 162.747 99.2948C162.023 102.556 160.264 105.15 157.413 107.091L157.434 109.539C157.788 109.163 158.018 108.906 158.205 108.76C158.358 108.607 158.518 108.475 158.706 108.329C159.722 107.64 160.681 107.327 161.592 107.424C162.552 107.494 163.317 108.002 163.964 108.906C164.729 110.046 164.875 111.277 164.416 112.571C163.964 113.857 162.969 115.026 161.509 116.027C160.897 116.458 160.062 116.841 158.977 117.195C158.456 117.362 157.76 117.543 156.842 117.8L156.439 115.714C157.294 115.436 157.858 115.227 158.164 115.116C158.873 114.859 159.409 114.594 159.77 114.337C160.521 113.829 160.932 113.308 161.036 112.793C161.161 112.244 161.092 111.806 160.827 111.458C160.473 110.923 160.055 110.7 159.562 110.728C159.061 110.749 158.602 110.909 158.192 111.201C157.962 111.361 157.712 111.555 157.51 111.785C157.315 112.014 157.065 112.286 156.849 112.585L155.556 112.39L155.396 108.475C152.51 110.464 149.13 110.971 145.131 109.963C141.209 108.934 137.725 106.221 134.707 101.805M163.386 59.9816L161.119 55.1553L166.398 52.6517L168.7 57.478L163.38 59.9816H163.386ZM164.506 63.6049L170.716 60.6353L184.924 90.6435L178.672 93.6061L164.506 63.6049V63.6049ZM224.724 41.0865L223.813 35.829L229.592 34.8276L230.545 40.0712L224.731 41.0865H224.724ZM215.836 42.6235L214.946 37.3659L220.725 36.3576L221.657 41.6081L215.843 42.6235H215.836ZM214.049 66.7622L210.565 46.6709L217.526 45.4609L220.99 65.5382C221.386 67.7914 221.922 69.37 222.631 70.3019C223.792 71.9988 225.74 72.6038 228.507 72.1379C231.289 71.658 232.916 70.4202 233.41 68.459C233.765 67.3394 233.765 65.6147 233.341 63.3823L229.836 43.3119L236.811 42.1019L240.316 62.1862C240.886 65.6912 240.838 68.4799 240.086 70.601C238.675 74.5163 235.17 76.9434 229.516 77.924C223.869 78.9045 219.696 77.7779 217.074 74.5858C215.663 72.8681 214.647 70.2393 214.042 66.7622M261.909 74.2381L255.477 73.9878L256.784 40.8362L264.03 41.1144L276.305 64.7523L277.216 41.622L283.656 41.9072L282.341 75.0587L275.429 74.7736L262.862 50.7184L261.902 74.2381H261.909ZM308.573 42.4774L302.822 41.316L303.879 36.0724L309.63 37.2408L308.573 42.4705V42.4774ZM301.702 78.7376L294.957 77.3746L301.542 44.8558L308.267 46.2397L301.702 78.7446V78.7376ZM329.047 87.0898L322.906 84.8088L323.943 49.8143L330.862 52.3805L328.866 78.5081L344.416 57.4224L351.211 59.926L329.047 87.0968V87.0898ZM349.284 96.1027L366.809 67.9096L387.464 80.7405L384.355 85.7198L369.466 76.4635L365.725 82.4443L379.432 90.9495L376.4 95.8524L362.692 87.3472L358.207 94.5867L373.785 104.274L370.648 109.344L349.284 96.0958V96.1027ZM385.072 121.458L394.036 112.035L398.939 116.709C400.33 118.051 401.053 119.212 401.053 120.2C401.102 121.208 400.392 122.474 398.939 124.032L396.818 126.299C396.192 127.001 395.573 127.766 395.072 128.566C394.85 128.948 394.516 129.47 394.196 130.165L399.704 135.437L400.281 134.846C400.1 134.074 400.225 133.33 400.656 132.592C400.955 132.106 401.616 131.327 402.673 130.228L404.231 128.615C405.817 126.925 406.762 125.464 407.096 124.198C407.402 122.94 407.221 121.57 406.54 120.061C408.327 120.874 410.01 121.013 411.631 120.457C413.251 119.901 414.614 119.038 415.699 117.905C416.61 116.966 417.257 115.978 417.646 114.97C418.084 113.941 418.335 112.87 418.397 111.792C418.481 110.471 418.272 109.198 417.736 107.96C417.215 106.743 416.151 105.331 414.537 103.739L403.07 92.7785L380.169 116.785L385.072 121.472V121.458ZM403.988 101.638L409.53 106.91C410.546 107.877 411.192 108.774 411.443 109.532C411.902 110.916 411.422 112.355 410.01 113.788C408.724 115.144 407.409 115.596 406.025 115.144C405.246 114.907 404.294 114.254 403.244 113.224L397.819 108.078L403.988 101.645V101.638ZM416.916 146.473C416.464 148.184 417.02 150.208 418.627 152.482C419.559 153.873 420.47 154.895 421.339 155.535C423.001 156.752 424.663 156.856 426.207 155.806C427.118 155.166 427.528 154.29 427.493 153.157C427.41 152.037 426.944 150.472 426.137 148.49L424.767 145.103C423.376 141.737 422.716 139.248 422.73 137.648C422.709 134.95 424.044 132.669 426.742 130.826C429.169 129.15 431.833 128.635 434.691 129.324C437.563 130.005 440.185 132.106 442.571 135.604C444.58 138.525 445.54 141.515 445.429 144.637C445.304 147.739 443.822 150.361 441.006 152.454L437.223 146.967C438.808 145.715 439.469 144.192 439.219 142.349C439.038 141.132 438.488 139.818 437.556 138.469C436.541 136.953 435.394 135.965 434.17 135.472C432.967 134.971 431.847 135.096 430.741 135.826C429.788 136.494 429.35 137.447 429.475 138.678C429.58 139.463 430.025 140.931 430.894 143.073L433.057 148.65C433.968 151.105 434.42 153.143 434.323 154.735C434.149 157.246 432.841 159.353 430.435 161.015C427.918 162.733 425.185 163.213 422.187 162.406C419.225 161.641 416.499 159.457 414.085 155.945C411.624 152.336 410.476 148.949 410.678 145.771C410.886 142.586 412.402 140.02 415.226 138.066L419.009 143.511C417.889 144.568 417.159 145.548 416.909 146.494M463.364 166.37L460.812 161.071L465.631 158.769L468.184 164.047L463.364 166.37ZM427.34 176.614L457.217 162.197L460.207 168.408L430.324 182.817L427.34 176.614V176.614ZM465.986 200.495L439.928 208.618L437.842 201.928L463.928 193.847L460.951 184.312L466.584 182.574L474.533 208.242L468.949 209.96L465.986 200.495ZM444.866 228.751L477.864 225.197L480.458 249.398L474.623 250.024L472.732 232.583L465.736 233.32L467.46 249.357L461.723 249.955L460.005 233.946L451.549 234.864L453.489 253.091L447.529 253.731L444.872 228.744L444.866 228.751ZM474.686 279.594C474.867 277.793 474.616 276.291 474.011 275.13C473.413 273.989 472.454 273.363 471.167 273.238C469.985 273.113 469.025 273.572 468.385 274.594C467.926 275.255 467.349 276.687 466.619 278.864L464.693 284.539C463.907 287.022 462.905 288.858 461.786 290.04C460.061 291.876 457.717 292.641 454.769 292.37C451.75 292.091 449.344 290.701 447.578 288.162C445.777 285.659 445.081 282.265 445.484 278.009C445.895 273.648 447.16 270.331 449.358 268.029C451.556 265.699 454.365 264.705 457.815 265.018L457.21 271.618C455.673 271.701 454.511 271.993 453.698 272.55C452.251 273.579 451.396 275.484 451.104 278.259C450.978 279.921 451.034 281.27 451.284 282.355C451.785 284.372 452.995 285.485 454.866 285.659C455.944 285.763 456.834 285.339 457.543 284.428C458.183 283.537 458.851 282.035 459.491 280.005L460.61 276.493C461.688 273.078 462.752 270.707 463.809 269.497C465.506 267.403 468.003 266.492 471.264 266.798C474.192 267.07 476.55 268.384 478.316 270.741C480.083 273.092 480.771 276.368 480.382 280.61C480.062 284.122 478.866 287.049 476.779 289.372C474.707 291.674 471.925 292.731 468.406 292.55L468.99 285.93C471.007 285.985 472.474 285.22 473.469 283.642C474.13 282.578 474.533 281.236 474.658 279.594M442.425 302.37L474.589 310.451L472.913 317.141L440.721 309.06L442.431 302.37H442.425ZM483.247 313.198L481.814 318.88L476.619 317.572L478.08 311.877L483.24 313.191L483.247 313.198ZM201.705 436.652L206.879 438.377L196.399 469.839L190.084 467.718L197.296 446.013L189.897 443.565L191.308 439.323C193.27 439.928 194.681 440.234 195.53 440.303C196.851 440.449 198.033 440.234 199.083 439.677C199.834 439.281 200.474 438.662 201.072 437.807C201.413 437.285 201.643 436.896 201.719 436.645M240.928 445.081C237.625 444.726 234.996 445.283 233 446.799C231.004 448.294 229.877 450.248 229.606 452.634C229.502 453.718 229.606 454.88 229.961 456.187C230.336 457.453 231.247 458.739 232.722 459.95C231.032 460.527 229.669 461.542 228.667 462.954C227.687 464.373 227.11 465.986 226.901 467.836C226.581 470.618 227.29 473.086 228.973 475.207C230.684 477.384 233.362 478.636 237.054 479.046C240.733 479.443 243.717 478.761 245.984 477.03C248.251 475.312 249.517 473.045 249.802 470.284C250.01 468.441 249.781 466.716 249.141 465.11C248.439 463.538 247.375 462.21 245.817 461.104C247.514 460.374 248.661 459.428 249.266 458.232C249.892 457.029 250.247 455.909 250.351 454.824C250.636 452.46 249.948 450.304 248.286 448.412C246.672 446.521 244.217 445.401 240.914 445.074M243.16 469.136C243.014 470.743 242.451 471.96 241.519 472.773C240.587 473.58 239.377 473.893 237.882 473.74C236.394 473.58 235.267 473.003 234.544 472.022C233.793 471.042 233.487 469.741 233.675 468.135C233.883 466.417 234.426 465.207 235.385 464.421C236.317 463.656 237.548 463.35 238.995 463.489C240.455 463.649 241.547 464.213 242.298 465.151C243.084 466.118 243.355 467.432 243.167 469.136M244.078 454.894C243.953 456.097 243.501 457.036 242.667 457.717C241.881 458.378 240.824 458.677 239.488 458.552C238.181 458.378 237.2 457.912 236.54 457.077C235.879 456.222 235.629 455.234 235.768 454.004C235.872 452.696 236.345 451.723 237.18 451.076C237.986 450.415 239.071 450.165 240.379 450.29C241.686 450.45 242.66 450.93 243.327 451.722C243.953 452.557 244.217 453.614 244.078 454.901M290.826 458.969C288.774 457.182 286.257 456.438 283.308 456.751C281.987 456.897 280.777 457.223 279.754 457.787C278.739 458.322 277.863 459.129 277.181 460.151C277.112 457.599 277.223 455.652 277.557 454.275C278.238 451.827 279.608 450.471 281.729 450.262C283.12 450.102 284.212 450.512 285.033 451.493C285.513 452.077 285.784 452.634 285.839 453.155L292.279 452.494C291.778 449.9 290.568 447.925 288.566 446.535C286.57 445.165 284.052 444.643 280.985 444.963C278.864 445.185 277.119 445.853 275.665 447C274.253 448.113 273.169 449.532 272.383 451.215C271.493 453.211 270.992 455.624 270.908 458.482C270.867 460.089 270.978 462.119 271.242 464.651C271.701 468.921 272.828 472.349 274.629 474.908C276.973 478.163 280.213 479.575 284.372 479.144C288.232 478.733 290.944 477.273 292.571 474.721C294.157 472.168 294.748 469.366 294.442 466.313C294.108 463.197 292.905 460.763 290.826 458.983M287.133 471.883C286.41 473.045 285.346 473.705 283.934 473.851C282.439 474.011 281.173 473.601 280.095 472.565C279.01 471.549 278.412 470.138 278.204 468.371C277.974 466.174 278.454 464.512 279.615 463.392C280.387 462.641 281.34 462.203 282.439 462.078C283.809 461.932 285.019 462.328 286.076 463.267C287.112 464.199 287.717 465.61 287.947 467.537C288.107 469.282 287.842 470.694 287.133 471.883M337.455 455.721C338.345 458.378 338.206 461.021 337.01 463.677C335.848 466.299 333.442 468.211 329.833 469.387C325.361 470.861 321.787 470.423 319.109 468.1C317.677 466.855 316.501 464.985 315.576 462.516L321.661 460.52C322.051 461.765 322.621 462.745 323.303 463.427C324.534 464.692 326.175 465.026 328.143 464.386C329.353 463.941 330.285 463.197 330.911 462.071C331.537 460.93 331.599 459.588 331.078 458.016C330.396 455.944 329.089 454.838 327.197 454.692C326.112 454.636 324.541 454.901 322.503 455.582L321.022 451.187C323.038 450.478 324.374 449.817 325.055 449.191C326.217 448.134 326.488 446.674 325.862 444.831C325.473 443.621 324.805 442.751 323.852 442.23C322.934 441.708 321.787 441.673 320.521 442.084C319.074 442.564 318.129 443.37 317.788 444.532C317.391 445.672 317.489 447.049 318.017 448.565L312.238 450.478C311.779 448.92 311.557 447.32 311.557 445.77C311.682 444.379 312.092 442.988 312.843 441.597C313.379 440.582 314.165 439.684 315.145 438.94C316.147 438.175 317.426 437.529 319.054 436.993C322.058 436.013 324.742 435.999 327.107 436.91C329.478 437.89 331.071 439.671 331.947 442.265C332.552 444.135 332.531 445.881 331.85 447.522C331.425 448.537 330.89 449.309 330.229 449.845C330.786 449.685 331.745 449.88 333.108 450.485C335.174 451.444 336.62 453.162 337.455 455.714M80.9908 350.536C79.1201 353.923 74.8501 355.147 71.4425 353.255C68.0765 351.412 66.8734 347.128 68.7442 343.742C70.6079 340.383 74.8293 339.117 78.2578 341.022C81.6585 342.831 82.8824 347.108 80.9908 350.536M454.47 345.884C455.116 349.688 452.564 353.325 448.739 353.965C444.935 354.625 441.333 352.115 440.686 348.255C439.956 344.451 442.508 340.814 446.396 340.153C450.2 339.493 453.823 342.066 454.47 345.884M261.214 502.942C127.161 502.942 18.5404 394.335 18.5404 260.317C18.5404 126.299 127.154 17.685 261.214 17.685C395.274 17.685 503.839 126.32 503.839 260.317C503.839 394.314 395.204 502.942 261.214 502.942ZM500.389 260.317C500.389 128.218 393.306 21.1344 261.214 21.1344C129.122 21.1344 21.9689 128.225 21.9689 260.317C21.9689 392.409 129.074 499.513 261.214 499.513C393.354 499.513 500.389 392.422 500.389 260.317" fill="#1D4F91"/>
<path d="M261.207 113.67L114.504 260.296L165.674 260.317C165.674 303.664 200.815 338.755 244.141 338.755C287.467 338.755 322.621 303.664 322.621 260.296L199.8 260.317C199.8 216.977 234.94 181.878 278.287 181.878C321.634 181.878 356.746 216.977 356.746 260.296H407.889L261.214 113.67H261.207Z" fill="#1D4F91"/>
<path d="M356.739 260.303C356.739 216.984 321.599 181.885 278.28 181.885C234.961 181.885 199.8 216.984 199.8 260.303L322.614 260.324C322.614 303.67 287.474 338.762 244.134 338.762C200.794 338.762 165.674 303.622 165.674 260.303H114.504L261.228 406.978L407.882 260.324L356.732 260.303H356.739Z" fill="#7CCBEE"/>
</g>
<defs>
<clipPath id="clip0_1_9">
<rect width="522.4" height="522.379" fill="white"/>
</clipPath>
</defs>
</svg>
