<svg width="615" height="55" viewBox="0 0 615 55" fill="none" xmlns="http://www.w3.org/2000/svg">
<path d="M5.50863 22.6979C5.50863 15.9118 5.50863 14.6614 5.41931 13.2324C5.33 11.7158 4.97275 10.9996 3.49909 10.687C3.14184 10.5977 2.38269 10.5531 1.7575 10.5531C1.26628 10.5531 1 10.4638 1 10.1512C1 9.83858 1.3126 9.74927 1.98244 9.74927C4.34921 9.74927 7.16091 9.88323 8.05403 9.88323C10.2422 9.88323 11.9821 9.74927 13.5004 9.74927C21.5815 9.74927 23.0105 14.0809 23.0105 16.446C23.0105 20.1062 20.9117 22.2943 18.4572 24.2592C22.1174 25.5096 26.583 28.6785 26.583 33.9016C26.583 38.6798 22.8782 43.635 14.6631 43.635C14.1273 43.635 12.8322 43.544 11.5372 43.501C10.1975 43.4117 8.85783 43.3671 8.18964 43.3671C7.69842 43.3671 6.716 43.3671 5.64425 43.4117C4.61716 43.4117 3.4561 43.501 2.56463 43.501C1.9841 43.501 1.67151 43.3671 1.67151 43.0528C1.67151 42.8296 1.85013 42.6972 2.386 42.6972C3.05585 42.6972 3.59172 42.6063 3.99363 42.5186C4.88675 42.34 5.11002 41.3576 5.28865 40.0625C5.51193 38.1886 5.51193 34.6608 5.51193 30.5541V22.6979H5.50863ZM10.8657 23.4571C10.8657 23.8143 10.9997 23.9036 11.1783 23.9483C11.5802 24.0376 12.2501 24.0822 13.2771 24.0822C14.7508 24.0822 15.7332 23.9036 16.4907 23.2338C17.6518 22.296 18.3216 20.6884 18.3216 18.5019C18.3216 15.5099 16.58 11.5818 12.7413 11.5818C12.1161 11.5818 11.7142 11.5818 11.2676 11.6711C10.955 11.7604 10.8657 11.9391 10.8657 12.4303V23.4571ZM16.7587 27.0279C15.8209 26.358 14.7938 26.0455 13.0539 25.9561C12.25 25.9115 11.8035 25.9115 11.1337 25.9115C10.955 25.9115 10.8657 26.0025 10.8657 26.2241V36.8043C10.8657 39.7499 10.9997 40.5091 12.4287 41.0896C13.6344 41.5808 14.6615 41.6255 15.6869 41.6255C17.6964 41.6255 21.0887 40.5537 21.0887 35.9112C21.0887 33.1441 20.1509 29.393 16.7587 27.0279Z" fill="black" stroke="white" stroke-width="0.25" stroke-miterlimit="10"/>
<path d="M33.9993 26.626C33.9993 18.9915 39.0438 9.12415 52.4373 9.12415C63.5534 9.12415 70.4734 15.5976 70.4734 25.8206C70.4734 36.0452 63.3301 44.1246 51.9907 44.1246C39.1794 44.1263 33.9993 34.5285 33.9993 26.626ZM64.2249 27.4745C64.2249 17.4748 58.4659 11.2693 51.1439 11.2693C46.0101 11.2693 40.1618 14.1273 40.1618 25.2434C40.1618 34.5285 45.2956 41.8951 53.8679 41.8951C56.9922 41.8951 64.2249 40.3768 64.2249 27.4745Z" fill="black" stroke="white" stroke-width="0.25" stroke-miterlimit="10"/>
<path d="M110.04 40.5108C110.04 41.7165 109.996 41.8041 109.46 42.1184C106.559 43.6367 102.183 44.1279 98.7011 44.1279C87.7636 44.1279 78.0749 38.9495 78.0749 26.6277C78.0749 19.4843 81.7813 14.4845 85.8434 12.0284C90.1287 9.43836 94.1031 9.12577 97.8526 9.12577C100.932 9.12577 104.862 9.66164 105.755 9.84026C106.693 10.0189 108.256 10.2868 109.281 10.3315C109.817 10.3761 109.906 10.5548 109.906 10.8674C109.906 11.3586 109.594 12.6089 109.594 18.1893C109.594 18.9038 109.46 19.1271 109.103 19.1271C108.79 19.1271 108.701 18.9038 108.656 18.5466C108.522 17.5195 108.299 16.0905 107.139 14.8401C105.8 13.4111 102.229 11.3586 97.1828 11.3586C94.7267 11.3586 91.4684 11.5372 88.3425 14.1273C85.8417 16.2261 84.2358 19.5737 84.2358 25.0664C84.2358 34.6641 90.352 41.8505 99.7728 41.8505C100.934 41.8505 102.495 41.8505 103.567 41.3592C104.237 41.0466 104.415 40.4678 104.415 39.7086V35.5109C104.415 33.2781 104.415 31.5829 104.371 30.2432C104.326 28.7249 103.924 28.0104 102.451 27.6978C102.093 27.6085 101.334 27.5638 100.709 27.5638C100.307 27.5638 100.039 27.4745 100.039 27.2065C100.039 26.8493 100.352 26.76 100.977 26.76C103.297 26.76 106.111 26.8923 107.45 26.8923C108.833 26.8923 111.2 26.76 112.673 26.76C113.254 26.76 113.567 26.8493 113.567 27.2065C113.567 27.4745 113.299 27.5638 112.986 27.5638C112.629 27.5638 112.316 27.6085 111.78 27.6978C110.575 27.921 110.128 28.6802 110.083 30.2432C110.039 31.5829 110.039 33.3674 110.039 35.5986V40.5108H110.04ZM90.7093 2.47365L92.1829 1.31259C92.4955 1.04466 92.6295 1 92.7635 1C93.0314 1 93.2993 1.58053 93.7012 2.02709C95.2642 3.85634 96.6469 3.99196 97.8079 3.99196C99.7728 3.99196 101.289 3.05418 101.736 2.74159C103.119 1.66984 103.388 1.08931 103.701 1.08931C103.924 1.08931 104.058 1.26794 104.058 1.49122C104.058 2.16106 102.272 4.12593 101.245 4.79577C99.7712 5.77821 98.6564 6.31408 96.4236 6.31408C95.1732 6.31408 93.2977 5.77821 92.0043 4.70646C91.3345 4.17059 90.352 3.27747 90.352 2.92022C90.3537 2.65228 90.5753 2.56297 90.7093 2.47365Z" fill="black" stroke="white" stroke-width="0.25" stroke-miterlimit="10"/>
<path d="M126.972 32.1171C126.748 32.1171 126.659 32.2081 126.57 32.476L124.158 38.5906C123.712 39.7086 123.489 40.7787 123.489 41.313C123.489 42.1168 123.89 42.699 125.275 42.699H125.945C126.48 42.699 126.614 42.7866 126.614 43.0545C126.614 43.4135 126.346 43.5028 125.855 43.5028C124.426 43.5028 122.508 43.3688 121.123 43.3688C120.632 43.3688 118.176 43.5028 115.854 43.5028C115.273 43.5028 115.005 43.4135 115.005 43.0545C115.005 42.7866 115.184 42.699 115.541 42.699C115.943 42.699 116.568 42.6543 116.926 42.608C118.98 42.3401 119.827 40.8217 120.72 38.5889L131.925 10.9104C132.461 9.61536 132.729 9.12415 133.174 9.12415C133.576 9.12415 133.844 9.52605 134.29 10.5531C135.36 13.0092 142.504 30.8651 145.362 37.6528C147.059 41.6719 148.354 42.2954 149.29 42.5187C149.96 42.6526 150.63 42.6973 151.165 42.6973C151.523 42.6973 151.746 42.7403 151.746 43.0529C151.746 43.4118 151.344 43.5011 149.693 43.5011C148.086 43.5011 144.828 43.5011 141.255 43.4118C140.451 43.3671 139.915 43.3671 139.915 43.0529C139.915 42.785 140.094 42.6973 140.541 42.6526C140.853 42.5617 141.166 42.1614 140.942 41.6256L137.373 32.4297C137.284 32.2064 137.15 32.1171 136.927 32.1171H126.972ZM136.08 29.8843C136.303 29.8843 136.348 29.752 136.303 29.6164L132.286 18.6343C132.241 18.4556 132.196 18.2323 132.062 18.2323C131.929 18.2323 131.839 18.4556 131.795 18.6343L127.688 29.5717C127.643 29.7503 127.688 29.8826 127.866 29.8826H136.08V29.8843Z" fill="black" stroke="white" stroke-width="0.25" stroke-miterlimit="10"/>
<path d="M172.696 40.9127C177.25 40.9127 178.991 39.7963 179.706 38.4582C180.108 37.7438 180.376 36.9399 180.509 36.3148C180.599 35.8665 180.688 35.5986 180.956 35.5986C181.313 35.5986 181.403 35.9112 181.403 36.9846C181.403 38.4119 180.822 41.3129 180.509 42.431C180.286 43.2332 179.974 43.5904 179.17 43.5904C171.714 43.5904 164.215 43.3671 155.196 43.3671C154.705 43.3671 154.439 43.2331 154.439 42.9206C154.439 42.608 154.573 42.3847 155.108 41.5792C161.403 31.7582 168.011 21.6675 173.993 12.2484H165.242C162.965 12.2484 160.242 12.3824 158.813 13.1862C157.34 13.99 156.537 15.6406 156.402 16.6677C156.312 17.2929 156.134 17.4715 155.866 17.4715C155.553 17.4715 155.509 17.2482 155.509 16.7124C155.509 15.6853 156.179 11.6232 156.402 10.2835C156.491 9.65834 156.67 9.43506 156.938 9.43506C157.34 9.43506 157.608 9.70299 158.724 9.74765C162.965 9.92627 165.108 9.88162 166.937 9.88162H180.554C181.001 9.88162 181.313 10.0156 181.313 10.2389C181.313 10.5068 181.135 10.7747 180.956 11.0873C174.795 21.087 168.009 31.3116 161.714 40.9094H172.696V40.9127Z" fill="black" stroke="white" stroke-width="0.25" stroke-miterlimit="10"/>
<path d="M193.509 22.6979C193.509 15.9118 193.509 14.6615 193.42 13.2325C193.331 11.7158 192.884 10.9567 191.902 10.7317C191.411 10.5978 190.83 10.5531 190.294 10.5531C189.848 10.5531 189.58 10.4638 189.58 10.1065C189.58 9.8386 189.937 9.74928 190.651 9.74928C192.348 9.74928 195.162 9.88325 196.455 9.88325C197.571 9.88325 200.205 9.74928 201.901 9.74928C202.482 9.74928 202.839 9.8386 202.839 10.1065C202.839 10.4638 202.571 10.5531 202.125 10.5531C201.678 10.5531 201.321 10.5978 200.785 10.6871C199.579 10.9103 199.222 11.6695 199.133 13.2325C199.043 14.6615 199.043 15.9118 199.043 22.6979V30.5541C199.043 34.8841 199.043 38.4119 199.222 40.3305C199.356 41.5362 199.669 42.34 201.008 42.5186C201.634 42.6079 202.616 42.6973 203.286 42.6973C203.777 42.6973 204 42.8296 204 43.0528C204 43.3654 203.643 43.5011 203.152 43.5011C200.204 43.5011 197.393 43.3671 196.187 43.3671C195.16 43.3671 192.348 43.5011 190.562 43.5011C189.982 43.5011 189.669 43.3671 189.669 43.0528C189.669 42.8296 189.848 42.6973 190.383 42.6973C191.053 42.6973 191.589 42.6063 191.991 42.5186C192.884 42.34 193.152 41.5808 193.286 40.2858C193.509 38.4103 193.509 34.8824 193.509 30.5524V22.6979V22.6979ZM193.777 3.81332C193.777 2.69692 194.492 1.22327 196.278 1.22327C197.707 1.22327 198.823 2.16105 198.823 3.6347C198.823 5.10835 197.796 6.31407 196.278 6.31407C194.492 6.31241 193.777 4.92973 193.777 3.81332Z" fill="black" stroke="white" stroke-width="0.25" stroke-miterlimit="10"/>
<path d="M226.33 46.4484C229.588 46.7594 231.598 48.0097 231.598 50.0193C231.598 51.8055 229.767 54.7975 223.383 54.7975C222.981 54.7975 222.624 54.6635 222.624 54.3509C222.624 53.949 223.159 53.7687 223.785 53.7687C225.258 53.7687 227.534 52.6523 227.534 50.7768C227.534 49.571 226.998 47.9651 224.008 47.5169C223.383 47.4292 223.025 47.2936 223.025 47.1613C223.025 47.0256 223.159 46.9363 223.74 46.4914L227.312 43.8121C219.008 42.6973 211.061 37.4742 211.061 26.0885C211.061 23.0536 211.999 17.7841 216.284 13.856C219.499 10.9104 223.74 9.12415 230.392 9.12415C233.161 9.12415 234.811 9.30277 236.866 9.57071C238.562 9.79399 239.992 10.1959 241.33 10.3299C241.821 10.3745 241.999 10.5978 241.999 10.8657C241.999 11.223 241.865 11.7589 241.776 13.3218C241.687 14.7955 241.731 17.2499 241.642 18.143C241.597 18.8129 241.508 19.1701 241.106 19.1701C240.749 19.1701 240.66 18.8129 240.66 18.1877C240.615 16.805 240.034 15.242 238.918 14.081C237.444 12.518 233.963 11.3123 229.856 11.3123C225.971 11.3123 223.427 12.2947 221.462 14.081C218.203 17.0713 217.356 21.3136 217.356 25.642C217.356 36.2685 225.437 41.5346 231.419 41.5346C235.392 41.5346 237.803 41.088 239.588 39.0355C240.347 38.187 240.928 36.892 241.106 36.0882C241.24 35.3737 241.33 35.1967 241.687 35.1967C241.999 35.1967 242.089 35.5077 242.089 35.8649C242.089 36.4008 241.553 40.2859 241.106 41.8025C240.883 42.5617 240.704 42.785 239.945 43.0976C238.159 43.8121 234.767 44.1246 231.91 44.1246C231.062 44.1246 230.258 44.08 229.544 44.0337L226.33 46.4484Z" fill="black" stroke="white" stroke-width="0.25" stroke-miterlimit="10"/>
<path d="M254.331 22.6979C254.331 15.9118 254.331 14.6615 254.24 13.2325C254.151 11.7158 253.706 10.9567 252.723 10.7317C252.231 10.5978 251.652 10.5531 251.114 10.5531C250.668 10.5531 250.4 10.4638 250.4 10.1065C250.4 9.8386 250.757 9.74928 251.471 9.74928C253.167 9.74928 255.98 9.88325 257.275 9.88325C258.391 9.88325 261.026 9.74928 262.721 9.74928C263.302 9.74928 263.658 9.8386 263.658 10.1065C263.658 10.4638 263.391 10.5531 262.943 10.5531C262.497 10.5531 262.141 10.5978 261.603 10.6871C260.398 10.9103 260.042 11.6695 259.951 13.2325C259.862 14.6615 259.862 15.9118 259.862 22.6979V30.5541C259.862 34.8841 259.862 38.4119 260.04 40.3305C260.173 41.5362 260.487 42.34 261.825 42.5186C262.45 42.6079 263.433 42.6973 264.103 42.6973C264.594 42.6973 264.817 42.8296 264.817 43.0528C264.817 43.3654 264.46 43.5011 263.969 43.5011C261.023 43.5011 258.21 43.3671 257.004 43.3671C255.977 43.3671 253.165 43.5011 251.379 43.5011C250.798 43.5011 250.486 43.3671 250.486 43.0528C250.486 42.8296 250.664 42.6973 251.202 42.6973C251.87 42.6973 252.408 42.6063 252.809 42.5186C253.703 42.34 253.969 41.5808 254.103 40.2858C254.328 38.4103 254.328 34.8824 254.328 30.5524V22.6979H254.331ZM254.597 3.81332C254.597 2.69692 255.313 1.22327 257.098 1.22327C258.527 1.22327 259.643 2.16105 259.643 3.6347C259.643 5.10835 258.616 6.31407 257.098 6.31407C255.313 6.31241 254.597 4.92973 254.597 3.81332Z" fill="black" stroke="white" stroke-width="0.25" stroke-miterlimit="10"/>
<path d="M291.351 22.6979C291.351 15.9118 291.351 14.6614 291.26 13.2324C291.171 11.7158 290.813 10.9996 289.341 10.687C288.984 10.5977 288.225 10.5531 287.6 10.5531C287.109 10.5531 286.841 10.4638 286.841 10.1512C286.841 9.83858 287.152 9.74927 287.823 9.74927C290.19 9.74927 293.002 9.88324 294.34 9.88324C295.411 9.88324 298.225 9.74927 299.831 9.74927C300.501 9.74927 300.813 9.83858 300.813 10.1512C300.813 10.4638 300.545 10.5531 300.099 10.5531C299.607 10.5531 299.34 10.5977 298.804 10.687C297.598 10.9103 297.242 11.6695 297.153 13.2324C297.064 14.6614 297.064 15.9118 297.064 22.6979V28.9481C297.064 35.4216 298.357 38.1456 300.544 39.9319C302.553 41.5825 304.607 41.7611 306.126 41.7611C308.09 41.7611 310.5 41.1359 312.287 39.3497C314.741 36.8952 314.875 32.8762 314.875 28.2799V22.6979C314.875 15.9118 314.875 14.6614 314.786 13.2324C314.696 11.7158 314.337 10.9996 312.865 10.687C312.508 10.5977 311.749 10.5531 311.258 10.5531C310.767 10.5531 310.499 10.4638 310.499 10.1512C310.499 9.83858 310.811 9.74927 311.436 9.74927C313.712 9.74927 316.526 9.88324 316.57 9.88324C317.106 9.88324 319.919 9.74927 321.659 9.74927C322.285 9.74927 322.597 9.83858 322.597 10.1512C322.597 10.4638 322.329 10.5531 321.793 10.5531C321.302 10.5531 321.036 10.5977 320.5 10.687C319.294 10.9103 318.937 11.6695 318.848 13.2324C318.758 14.6614 318.758 15.9118 318.758 22.6979V27.4745C318.758 32.4296 318.267 37.6991 314.518 40.9126C311.349 43.635 308.133 44.1262 305.232 44.1262C302.866 44.1262 298.58 43.9923 295.322 41.045C293.045 38.9924 291.349 35.6895 291.349 29.216V22.6979H291.351Z" fill="black" stroke="white" stroke-width="0.25" stroke-miterlimit="10"/>
<path d="M336.497 37.4295C336.586 40.911 337.167 42.0721 338.058 42.3847C338.817 42.6526 339.666 42.6972 340.38 42.6972C340.871 42.6972 341.139 42.7849 341.139 43.0528C341.139 43.4117 340.737 43.5011 340.112 43.5011C337.21 43.5011 335.425 43.3671 334.575 43.3671C334.175 43.3671 332.076 43.5011 329.754 43.5011C329.173 43.5011 328.771 43.4581 328.771 43.0528C328.771 42.7849 329.039 42.6972 329.486 42.6972C330.068 42.6972 330.87 42.6526 331.495 42.4723C332.656 42.1151 332.835 40.82 332.88 36.9366L333.282 10.6407C333.282 9.74762 333.415 9.12244 333.862 9.12244C334.353 9.12244 334.755 9.70297 335.514 10.5068C336.05 11.0873 342.836 18.2306 349.353 24.7025C352.389 27.7391 358.415 34.1679 359.174 34.8808H359.399L358.951 14.8351C358.908 12.1127 358.504 11.2643 357.432 10.8177C356.764 10.5498 355.691 10.5498 355.065 10.5498C354.531 10.5498 354.351 10.4158 354.351 10.1479C354.351 9.79062 354.842 9.74597 355.512 9.74597C357.832 9.74597 359.976 9.87993 360.914 9.87993C361.405 9.87993 363.102 9.74597 365.29 9.74597C365.871 9.74597 366.317 9.79062 366.317 10.1479C366.317 10.4158 366.049 10.5498 365.513 10.5498C365.067 10.5498 364.711 10.5498 364.174 10.6837C362.923 11.041 362.566 11.9788 362.521 14.4779L362.03 42.6493C362.03 43.6317 361.853 44.032 361.45 44.032C360.958 44.032 360.423 43.5408 359.931 43.0495C357.12 40.3718 351.405 34.5235 346.761 29.9239C341.895 25.1027 336.94 19.6563 336.136 18.8079H336.002L336.497 37.4295Z" fill="black" stroke="white" stroke-width="0.25" stroke-miterlimit="10"/>
<path d="M378.965 22.6979C378.965 15.9118 378.965 14.6614 378.875 13.2324C378.784 11.7158 378.34 10.9566 377.357 10.7317C376.866 10.5977 376.287 10.5531 375.75 10.5531C375.303 10.5531 375.035 10.4638 375.035 10.1065C375.035 9.83858 375.392 9.74927 376.105 9.74927C377.8 9.74927 380.615 9.88324 381.909 9.88324C383.025 9.88324 385.66 9.74927 387.357 9.74927C387.937 9.74927 388.293 9.83858 388.293 10.1065C388.293 10.4638 388.025 10.5531 387.578 10.5531C387.13 10.5531 386.775 10.5977 386.237 10.687C385.031 10.9103 384.676 11.6695 384.586 13.2324C384.496 14.6614 384.496 15.9118 384.496 22.6979V30.5541C384.496 34.8841 384.496 38.4119 384.674 40.3305C384.808 41.5362 385.121 42.34 386.46 42.5186C387.086 42.6079 388.068 42.6972 388.736 42.6972C389.227 42.6972 389.452 42.8296 389.452 43.0528C389.452 43.3654 389.093 43.501 388.602 43.501C385.657 43.501 382.845 43.3671 381.639 43.3671C380.612 43.3671 377.799 43.501 376.014 43.501C375.432 43.501 375.121 43.3671 375.121 43.0528C375.121 42.8296 375.3 42.6972 375.836 42.6972C376.505 42.6972 377.041 42.6063 377.443 42.5186C378.336 42.34 378.604 41.5808 378.738 40.2858C378.961 38.4102 378.961 34.8824 378.961 30.5524V22.6979H378.965Z" fill="black" stroke="white" stroke-width="0.25" stroke-miterlimit="10"/>
<path d="M397.72 14.1256C396.693 11.6695 395.934 11.1783 394.326 10.7317C393.658 10.5531 392.944 10.5531 392.585 10.5531C392.185 10.5531 392.051 10.4191 392.051 10.1512C392.051 9.79392 392.542 9.74927 393.21 9.74927C395.577 9.74927 398.122 9.88323 399.684 9.88323C400.8 9.88323 402.943 9.74927 405.175 9.74927C405.71 9.74927 406.202 9.83858 406.202 10.1512C406.202 10.4638 405.934 10.5531 405.532 10.5531C404.817 10.5531 404.148 10.5977 403.79 10.8657C403.479 11.089 403.344 11.4015 403.344 11.8034C403.344 12.384 403.746 13.6344 404.371 15.242L412.05 35.5092H412.227C414.147 30.5987 419.951 16.2228 421.023 13.2771C421.246 12.6966 421.423 12.0284 421.423 11.6248C421.423 11.2676 421.246 10.9103 420.842 10.7764C420.306 10.5977 419.637 10.5531 419.056 10.5531C418.656 10.5531 418.297 10.5084 418.297 10.1958C418.297 9.83858 418.699 9.74927 419.547 9.74927C421.78 9.74927 423.654 9.88323 424.236 9.88323C424.995 9.88323 427.094 9.74927 428.432 9.74927C429.013 9.74927 429.368 9.83858 429.368 10.1512C429.368 10.4638 429.1 10.5531 428.654 10.5531C428.207 10.5531 427.269 10.5531 426.467 11.089C425.885 11.4909 425.217 12.25 424.011 15.1064C422.27 19.3024 421.066 21.7138 418.656 27.2049C415.798 33.723 413.699 38.5889 412.717 40.82C411.557 43.4101 411.289 44.1246 410.664 44.1246C410.083 44.1246 409.816 43.4994 408.969 41.4022L397.72 14.1256Z" fill="black" stroke="white" stroke-width="0.25" stroke-miterlimit="10"/>
<path d="M436.837 22.698C436.837 15.9119 436.837 14.6615 436.748 13.2325C436.659 11.7159 436.3 10.9997 434.828 10.6871C434.471 10.5978 433.712 10.5532 433.086 10.5532C432.595 10.5532 432.327 10.4638 432.327 10.1512C432.327 9.83865 432.64 9.74934 433.31 9.74934C434.515 9.74934 435.81 9.794 436.927 9.794C438.088 9.83865 439.115 9.88331 439.74 9.88331C441.167 9.88331 450.052 9.88331 450.901 9.83865C451.749 9.74934 452.462 9.66003 452.819 9.57072C453.044 9.52606 453.311 9.39209 453.536 9.39209C453.759 9.39209 453.803 9.57071 453.803 9.794C453.803 10.1066 453.579 10.6425 453.445 12.6966C453.402 13.1432 453.311 15.1081 453.221 15.6423C453.178 15.8656 453.087 16.1335 452.775 16.1335C452.462 16.1335 452.373 15.9102 452.373 15.5083C452.373 15.1974 452.328 14.4382 452.105 13.9007C451.794 13.0969 451.346 12.561 449.113 12.2931C448.354 12.2038 443.667 12.1145 442.773 12.1145C442.55 12.1145 442.462 12.2484 442.462 12.561V23.8557C442.462 24.1667 442.505 24.3469 442.773 24.3469C443.756 24.3469 448.89 24.3469 449.917 24.2576C450.987 24.1667 451.658 24.0343 452.06 23.5878C452.371 23.2305 452.551 23.0073 452.775 23.0073C452.952 23.0073 453.086 23.0966 453.086 23.3645C453.086 23.6324 452.909 24.3469 452.728 26.6244C452.684 27.5175 452.551 29.3021 452.551 29.6147C452.551 29.9736 452.551 30.4648 452.15 30.4648C451.837 30.4648 451.748 30.2879 451.748 30.0629C451.703 29.6147 451.703 29.0375 451.569 28.4553C451.346 27.5622 450.721 26.8923 449.07 26.7137C448.22 26.6244 443.8 26.5797 442.73 26.5797C442.505 26.5797 442.462 26.7584 442.462 27.028V30.5541C442.462 32.0725 442.418 36.1792 442.462 37.4758C442.552 40.5538 443.265 41.2253 447.82 41.2253C448.979 41.2253 450.855 41.2253 452.016 40.6911C453.177 40.1552 453.711 39.2174 454.025 37.3865C454.114 36.8953 454.202 36.7183 454.516 36.7183C454.874 36.7183 454.874 37.0739 454.874 37.5205C454.874 38.5476 454.516 41.5826 454.293 42.4757C453.98 43.6367 453.577 43.6367 451.882 43.6367C448.534 43.6367 446.078 43.5458 444.158 43.5028C442.239 43.4135 440.855 43.3688 439.513 43.3688C439.022 43.3688 438.04 43.3688 436.97 43.4135C435.943 43.4135 434.783 43.5028 433.89 43.5028C433.308 43.5028 432.997 43.3688 432.997 43.0546C432.997 42.8313 433.176 42.699 433.711 42.699C434.381 42.699 434.917 42.608 435.319 42.5203C436.212 42.3417 436.436 41.3593 436.614 40.0643C436.837 38.1903 436.837 34.6625 436.837 30.5558V22.698V22.698Z" fill="black" stroke="white" stroke-width="0.25" stroke-miterlimit="10"/>
<path d="M467.738 22.6979C467.738 15.9118 467.738 14.6614 467.649 13.2324C467.559 11.7158 467.2 10.9996 465.728 10.687C465.371 10.5977 464.612 10.5531 463.987 10.5531C463.496 10.5531 463.228 10.4638 463.228 10.1512C463.228 9.83858 463.54 9.74927 464.21 9.74927C466.577 9.74927 469.39 9.88323 470.326 9.88323C471.845 9.88323 475.238 9.74927 476.623 9.74927C479.434 9.74927 482.426 10.0172 484.836 11.6695C486.087 12.5179 487.873 14.7954 487.873 17.7857C487.873 21.0903 486.488 24.1252 481.98 27.787C485.953 32.7852 489.036 36.7596 491.667 39.5283C494.168 42.1167 495.999 42.431 496.667 42.5633C497.158 42.6542 497.56 42.6989 497.917 42.6989C498.274 42.6989 498.453 42.8312 498.453 43.0545C498.453 43.4134 498.14 43.5027 497.605 43.5027H493.364C490.863 43.5027 489.747 43.2778 488.586 42.6542C486.667 41.6271 484.969 39.5283 482.469 36.0898C480.685 33.6353 478.631 30.6004 478.05 29.9289C477.827 29.6609 477.559 29.6163 477.248 29.6163L473.363 29.5286C473.14 29.5286 473.006 29.6163 473.006 29.8842V30.5111C473.006 34.6624 473.006 38.1903 473.229 40.0625C473.363 41.3576 473.631 42.34 474.971 42.5186C475.639 42.6079 476.623 42.6972 477.157 42.6972C477.514 42.6972 477.693 42.8296 477.693 43.0528C477.693 43.3654 477.38 43.501 476.8 43.501C474.211 43.501 470.907 43.3671 470.237 43.3671C469.389 43.3671 466.575 43.501 464.791 43.501C464.208 43.501 463.897 43.3671 463.897 43.0528C463.897 42.8296 464.076 42.6972 464.612 42.6972C465.282 42.6972 465.818 42.6063 466.22 42.5186C467.113 42.34 467.336 41.3576 467.515 40.0625C467.738 38.1886 467.738 34.6608 467.738 30.5541V22.6979ZM473.007 26.2241C473.007 26.7153 473.097 26.8923 473.408 27.0279C474.345 27.3388 475.685 27.4745 476.801 27.4745C478.588 27.4745 479.168 27.2975 479.972 26.7153C481.312 25.7329 482.605 23.6803 482.605 20.0185C482.605 13.679 478.409 11.8481 475.774 11.8481C474.658 11.8481 473.856 11.8928 473.408 12.0267C473.097 12.116 473.007 12.2947 473.007 12.6503V26.2241Z" fill="black" stroke="white" stroke-width="0.25" stroke-miterlimit="10"/>
<path d="M501.008 42.9652C500.294 42.6542 500.16 42.431 500.16 41.4485C500.16 38.9924 500.337 36.3147 500.383 35.5986C500.426 34.9304 500.56 34.4392 500.919 34.4392C501.319 34.4392 501.366 34.8394 501.366 35.1983C501.366 35.7788 501.544 36.7166 501.768 37.4758C502.75 40.7787 505.385 41.9844 508.15 41.9844C512.169 41.9844 514.132 39.262 514.132 36.8952C514.132 34.7087 513.464 32.6546 509.756 29.7536L507.703 28.1443C502.791 24.3072 501.096 21.1812 501.096 17.5641C501.096 12.6536 505.203 9.12573 511.408 9.12573C514.311 9.12573 516.187 9.57229 517.346 9.88489C517.748 9.9742 517.971 10.1082 517.971 10.4208C517.971 11.0013 517.794 12.2963 517.794 15.7778C517.794 16.7603 517.66 17.1175 517.303 17.1175C516.99 17.1175 516.855 16.8496 516.855 16.3137C516.855 15.9118 516.631 14.5275 515.695 13.3664C515.025 12.5179 513.73 11.1783 510.829 11.1783C507.525 11.1783 505.517 13.0985 505.517 15.7762C505.517 17.8304 506.542 19.3933 510.247 22.205L511.498 23.1428C516.901 27.2049 518.82 30.2861 518.82 34.5268C518.82 37.1152 517.837 40.1981 514.624 42.2937C512.391 43.7227 509.892 44.1246 507.525 44.1246C504.936 44.1262 502.927 43.8136 501.008 42.9652Z" fill="black" stroke="white" stroke-width="0.25" stroke-miterlimit="10"/>
<path d="M532.132 22.6979C532.132 15.9118 532.132 14.6614 532.043 13.2324C531.953 11.7158 531.507 10.9566 530.524 10.7317C530.033 10.5977 529.454 10.5531 528.917 10.5531C528.47 10.5531 528.202 10.4638 528.202 10.1065C528.202 9.83858 528.56 9.74927 529.272 9.74927C530.968 9.74927 533.783 9.88324 535.076 9.88324C536.192 9.88324 538.827 9.74927 540.522 9.74927C541.105 9.74927 541.46 9.83858 541.46 10.1065C541.46 10.4638 541.192 10.5531 540.746 10.5531C540.298 10.5531 539.942 10.5977 539.404 10.687C538.199 10.9103 537.843 11.6695 537.754 13.2324C537.664 14.6614 537.664 15.9118 537.664 22.6979V30.5541C537.664 34.8841 537.664 38.4119 537.841 40.3305C537.975 41.5362 538.288 42.34 539.628 42.5186C540.253 42.6079 541.235 42.6972 541.903 42.6972C542.395 42.6972 542.62 42.8296 542.62 43.0528C542.62 43.3654 542.261 43.501 541.77 43.501C538.824 43.501 536.012 43.3671 534.805 43.3671C533.779 43.3671 530.966 43.501 529.181 43.501C528.599 43.501 528.288 43.3671 528.288 43.0528C528.288 42.8296 528.467 42.6972 529.003 42.6972C529.673 42.6972 530.209 42.6063 530.61 42.5186C531.504 42.34 531.771 41.5808 531.905 40.2858C532.129 38.4102 532.129 34.8824 532.129 30.5524V22.6979H532.132Z" fill="black" stroke="white" stroke-width="0.25" stroke-miterlimit="10"/>
<path d="M560.934 12.25L554.283 12.4286C551.695 12.5179 550.621 12.7412 549.953 13.7237C549.505 14.3935 549.283 14.9294 549.194 15.2866C549.105 15.6439 548.971 15.8225 548.703 15.8225C548.39 15.8225 548.301 15.5992 548.301 15.108C548.301 14.3935 549.149 10.3314 549.237 9.9742C549.371 9.39367 549.505 9.12573 549.773 9.12573C550.13 9.12573 550.577 9.57229 551.693 9.66161C552.986 9.79557 554.685 9.88489 556.157 9.88489H573.834C575.263 9.88489 576.246 9.75092 576.916 9.66161C577.584 9.52764 577.941 9.43833 578.121 9.43833C578.432 9.43833 578.478 9.70626 578.478 10.3761C578.478 11.3139 578.345 14.3935 578.345 15.5546C578.3 16.0011 578.211 16.2691 577.943 16.2691C577.585 16.2691 577.496 16.0458 577.451 15.3759L577.408 14.8847C577.317 13.7237 576.113 12.4733 572.139 12.384L566.514 12.25V30.5541C566.514 34.6608 566.514 38.1886 566.739 40.1072C566.871 41.3575 567.139 42.34 568.48 42.5186C569.104 42.6079 570.088 42.6972 570.756 42.6972C571.248 42.6972 571.471 42.8295 571.471 43.0528C571.471 43.3654 571.114 43.501 570.622 43.501C567.677 43.501 564.865 43.3671 563.615 43.3671C562.588 43.3671 559.776 43.501 557.99 43.501C557.409 43.501 557.096 43.3671 557.096 43.0528C557.096 42.8295 557.275 42.6972 557.811 42.6972C558.481 42.6972 559.017 42.6063 559.419 42.5186C560.312 42.34 560.58 41.3576 560.714 40.0625C560.937 38.1886 560.937 34.6608 560.937 30.5541V12.25H560.934Z" fill="black" stroke="white" stroke-width="0.25" stroke-miterlimit="10"/>
<path d="M594.604 31.9385C594.604 29.5287 594.156 28.5463 593.577 27.2512C593.266 26.5367 587.282 16.714 585.719 14.3936C584.603 12.7413 583.487 11.6265 582.64 11.1353C582.059 10.8227 581.3 10.5548 580.764 10.5548C580.407 10.5548 580.096 10.4655 580.096 10.1529C580.096 9.88495 580.407 9.75098 580.944 9.75098C581.747 9.75098 585.096 9.88494 586.57 9.88494C587.506 9.88494 589.337 9.75098 591.346 9.75098C591.793 9.75098 592.016 9.88495 592.016 10.1529C592.016 10.4208 591.703 10.4655 591.033 10.6441C590.632 10.7334 590.408 11.0907 590.408 11.4479C590.408 11.8052 590.632 12.341 590.943 12.9646C591.568 14.3042 597.818 25.0647 598.532 26.3151C598.981 25.2434 604.604 15.4207 605.229 14.0363C605.677 13.0539 605.854 12.2947 605.854 11.7158C605.854 11.2693 605.677 10.7781 604.918 10.5994C604.516 10.5101 604.114 10.4208 604.114 10.1529C604.114 9.84029 604.338 9.75098 604.874 9.75098C606.347 9.75098 607.776 9.88494 609.07 9.88494C610.052 9.88494 612.999 9.75098 613.848 9.75098C614.339 9.75098 614.65 9.84029 614.65 10.1082C614.65 10.4208 614.293 10.5548 613.802 10.5548C613.355 10.5548 612.508 10.7334 611.837 11.0907C610.901 11.5372 610.409 12.0731 609.427 13.2772C607.952 15.0634 601.703 25.5559 600.899 27.4745C600.231 29.0821 600.231 30.4665 600.231 31.9385V35.5986C600.231 36.3148 600.231 38.1887 600.363 40.0626C600.454 41.3576 600.855 42.34 602.194 42.5187C602.819 42.608 603.802 42.6973 604.427 42.6973C604.918 42.6973 605.142 42.8296 605.142 43.0529C605.142 43.3655 604.784 43.5011 604.205 43.5011C601.392 43.5011 598.58 43.3671 597.375 43.3671C596.258 43.3671 593.445 43.5011 591.793 43.5011C591.167 43.5011 590.81 43.4118 590.81 43.0529C590.81 42.8296 591.035 42.6973 591.526 42.6973C592.152 42.6973 592.686 42.6063 593.088 42.5187C593.981 42.34 594.383 41.3576 594.472 40.0626C594.606 38.1887 594.606 36.3131 594.606 35.5986V31.9385H594.604Z" fill="black" stroke="white" stroke-width="0.25" stroke-miterlimit="10"/>
</svg>
