<?xml version="1.0" standalone="no"?>
<!DOCTYPE svg PUBLIC "-//W3C//DTD SVG 20010904//EN"
 "http://www.w3.org/TR/2001/REC-SVG-20010904/DTD/svg10.dtd">
<svg version="1.0" xmlns="http://www.w3.org/2000/svg"
 width="700.000000pt" height="700.000000pt" viewBox="0 0 700.000000 700.000000"
 preserveAspectRatio="xMidYMid meet">
<metadata>
Created by potrace 1.14, written by Peter Selinger 2001-2017
</metadata>
<g transform="translate(0.000000,700.000000) scale(0.100000,-0.100000)"
fill="#000000" stroke="none">
<path d="M3330 6980 c-93 -23 -69 -13 -553 -236 -221 -103 -431 -200 -467
-216 -36 -16 -99 -46 -140 -65 -101 -47 -140 -65 -385 -178 -115 -54 -361
-167 -545 -252 -184 -86 -360 -167 -390 -180 -30 -14 -101 -47 -158 -74 -57
-27 -105 -49 -107 -49 -1 0 -64 -29 -140 -65 -75 -36 -138 -65 -141 -65 -2 0
-42 -18 -88 -41 -182 -88 -250 -233 -195 -417 15 -53 75 -130 124 -163 22 -14
288 -140 590 -279 303 -139 591 -272 640 -295 50 -24 113 -53 140 -65 28 -13
87 -40 132 -61 45 -21 160 -74 255 -118 95 -43 211 -97 258 -119 47 -22 110
-51 140 -65 30 -13 93 -43 140 -65 47 -22 137 -63 200 -92 63 -29 151 -69 195
-90 225 -106 417 -189 475 -205 48 -14 98 -19 190 -19 175 1 207 10 543 168
55 25 100 46 102 46 2 0 65 29 140 65 76 36 139 65 140 65 2 0 50 22 107 49
56 27 153 71 213 99 61 28 155 71 210 97 55 26 177 82 270 125 252 115 324
148 390 180 33 16 146 68 250 115 105 48 228 105 275 127 47 22 103 48 125 58
38 17 121 55 270 125 39 18 106 49 150 70 196 90 229 115 277 213 29 59 33 76
33 147 0 91 -20 146 -76 209 -52 60 -62 65 -649 334 -36 16 -99 45 -140 64
-41 20 -250 116 -465 216 -214 99 -434 201 -488 226 -55 25 -100 46 -102 46
-2 0 -60 27 -130 60 -70 33 -128 60 -130 60 -1 0 -49 22 -106 49 -191 90 -280
131 -283 131 -2 0 -65 29 -140 65 -75 36 -138 65 -140 65 -2 0 -46 20 -97 44
-238 112 -278 128 -344 147 -101 29 -276 33 -375 9z"/>
<path d="M845 4100 c-52 -25 -143 -67 -555 -257 -139 -64 -161 -77 -200 -119
-67 -73 -84 -117 -84 -214 0 -72 4 -94 28 -148 33 -72 91 -129 169 -165 48
-23 121 -57 242 -113 28 -12 91 -41 140 -64 50 -23 110 -51 135 -62 25 -12 96
-45 158 -74 63 -30 115 -54 117 -54 2 0 42 -18 89 -40 48 -22 151 -70 229
-106 78 -36 165 -76 192 -89 59 -28 691 -320 850 -393 61 -28 160 -73 220
-102 61 -28 126 -59 145 -67 19 -9 86 -40 149 -70 62 -29 115 -53 116 -53 2 0
52 -23 111 -50 187 -88 277 -110 429 -106 104 3 198 23 275 58 25 11 74 34
110 50 36 17 90 42 120 55 30 14 87 40 125 58 56 26 613 284 920 425 33 15
305 141 605 280 300 138 678 313 840 388 162 74 314 148 337 164 51 34 84 77
115 144 32 71 32 201 -1 262 -51 98 -94 130 -313 231 -38 17 -98 45 -135 62
-38 18 -102 47 -143 66 -41 20 -111 52 -156 73 -151 70 -133 70 -268 6 -65
-31 -119 -56 -121 -56 -1 0 -49 -22 -106 -49 -87 -41 -493 -229 -689 -318 -30
-14 -98 -46 -150 -70 -52 -25 -113 -53 -135 -63 -22 -10 -71 -32 -110 -50 -38
-18 -99 -46 -135 -63 -36 -16 -119 -54 -184 -84 -65 -29 -131 -60 -145 -68
-64 -35 -259 -117 -334 -139 -117 -36 -206 -49 -332 -50 -222 -2 -363 34 -625
157 -52 25 -120 56 -150 70 -30 13 -89 40 -130 60 -41 19 -124 57 -185 85 -60
28 -150 69 -200 92 -49 23 -178 83 -285 132 -107 50 -229 106 -270 125 -41 20
-156 73 -255 118 -185 85 -246 113 -398 184 -49 23 -94 41 -100 41 -7 0 -39
-13 -72 -30z"/>
<path d="M811 2335 c-51 -25 -95 -45 -96 -45 -2 0 -50 -22 -107 -49 -132 -62
-254 -119 -348 -161 -104 -47 -141 -72 -183 -121 -94 -109 -100 -271 -16 -395
48 -70 68 -84 259 -172 36 -16 100 -46 143 -66 42 -20 103 -48 135 -62 66 -30
137 -63 275 -128 55 -25 100 -46 102 -46 1 0 49 -22 106 -49 120 -56 386 -180
649 -301 140 -65 228 -105 328 -151 37 -18 91 -42 120 -55 29 -13 85 -39 125
-58 97 -46 170 -79 532 -246 171 -78 315 -146 320 -150 17 -13 158 -58 215
-69 82 -15 253 -6 335 18 39 11 109 38 155 59 47 22 204 95 350 162 146 68
307 142 358 166 52 24 95 44 97 44 2 0 56 25 121 56 66 31 137 64 159 74 32
14 1120 516 1310 605 323 150 442 205 515 238 117 53 184 124 215 232 34 117
-2 246 -92 325 -46 40 -66 51 -288 153 -196 90 -265 122 -382 177 -56 27 -111
51 -123 55 -20 6 -123 -38 -530 -228 -47 -21 -166 -77 -265 -122 -99 -46 -216
-100 -260 -120 -98 -46 -192 -89 -265 -122 -30 -14 -93 -43 -140 -65 -528
-248 -782 -358 -856 -372 -175 -32 -336 -40 -458 -22 -53 8 -196 44 -221 55
-11 5 -42 18 -70 29 -27 11 -93 41 -145 65 -52 25 -120 56 -150 70 -30 14
-183 84 -340 157 -157 73 -332 154 -390 180 -102 46 -154 70 -330 152 -47 22
-193 90 -325 150 -132 61 -282 130 -333 154 -51 24 -98 44 -105 44 -7 -1 -54
-21 -106 -45z"/>
</g>
</svg>
